<?xml version="1.0" encoding="utf-8"?>
<!-- Generator: Adobe Illustrator 28.1.0, SVG Export Plug-In . SVG Version: 6.00 Build 0)  -->
<svg version="1.1" id="Layer_1" xmlns="http://www.w3.org/2000/svg" xmlns:xlink="http://www.w3.org/1999/xlink" x="0px" y="0px"
	 viewBox="0 0 35 21" style="enable-background:new 0 0 35 21;" xml:space="preserve">
<style type="text/css">
	.st0{clip-path:url(#SVGID_00000069386046116459783120000001212976641590470323_);fill:#FFFFFF;}
	.st1{clip-path:url(#SVGID_00000069386046116459783120000001212976641590470323_);fill:#BD0034;}
	.st2{clip-path:url(#SVGID_00000069386046116459783120000001212976641590470323_);fill:#1A237B;}
</style>
<g id="UNITED_KINGDOM_2_">
	<g>
		<g>
			<defs>
				<rect id="SVGID_1_" x="0.79" y="1.01" width="33.56" height="19.58"/>
			</defs>
			<clipPath id="SVGID_00000179644337996681162510000014622936807251705472_">
				<use xlink:href="#SVGID_1_"  style="overflow:visible;"/>
			</clipPath>
			
				<rect x="0.79" y="1.01" style="clip-path:url(#SVGID_00000179644337996681162510000014622936807251705472_);fill:#FFFFFF;" width="33.56" height="19.58"/>
			<polygon style="clip-path:url(#SVGID_00000179644337996681162510000014622936807251705472_);fill:#BD0034;" points="23.26,8.09 
				34.35,1.88 34.35,1.01 33.58,1.01 20.94,8.09 			"/>
			<polygon style="clip-path:url(#SVGID_00000179644337996681162510000014622936807251705472_);fill:#BD0034;" points="22.74,13.9 
				34.35,20.4 34.35,19.1 25.06,13.9 			"/>
			<polygon style="clip-path:url(#SVGID_00000179644337996681162510000014622936807251705472_);fill:#BD0034;" points="0.79,2.5 
				10.72,8.09 13.04,8.09 0.79,1.2 			"/>
			<polygon style="clip-path:url(#SVGID_00000179644337996681162510000014622936807251705472_);fill:#BD0034;" points="12.52,13.9 
				0.79,20.48 0.79,20.59 2.91,20.59 14.84,13.9 			"/>
			<polygon style="clip-path:url(#SVGID_00000179644337996681162510000014622936807251705472_);fill:#1A237B;" points="32.05,1.01 
				20.3,1.01 20.3,7.59 			"/>
			<polygon style="clip-path:url(#SVGID_00000179644337996681162510000014622936807251705472_);fill:#1A237B;" points="15.11,1.01 
				3.41,1.01 15.11,7.59 			"/>
			<polygon style="clip-path:url(#SVGID_00000179644337996681162510000014622936807251705472_);fill:#1A237B;" points="34.35,8.09 
				34.35,3.6 26.38,8.09 			"/>
			<polygon style="clip-path:url(#SVGID_00000179644337996681162510000014622936807251705472_);fill:#1A237B;" points="34.35,18.35 
				34.35,13.9 26.38,13.9 			"/>
			<polygon style="clip-path:url(#SVGID_00000179644337996681162510000014622936807251705472_);fill:#1A237B;" points="4.07,20.59 
				15.11,20.59 15.11,14.4 			"/>
			<polygon style="clip-path:url(#SVGID_00000179644337996681162510000014622936807251705472_);fill:#1A237B;" points="20.3,20.59 
				31.38,20.59 20.3,14.4 			"/>
			<polygon style="clip-path:url(#SVGID_00000179644337996681162510000014622936807251705472_);fill:#1A237B;" points="0.79,13.9 
				0.79,18.55 9.04,13.9 			"/>
			<polygon style="clip-path:url(#SVGID_00000179644337996681162510000014622936807251705472_);fill:#1A237B;" points="0.79,8.09 
				9.04,8.09 0.79,3.44 			"/>
			<polygon style="clip-path:url(#SVGID_00000179644337996681162510000014622936807251705472_);fill:#BD0034;" points="16.15,1.01 
				16.15,9.25 0.79,9.25 0.79,12.74 16.15,12.74 16.15,20.59 19.26,20.59 19.26,12.74 34.35,12.74 34.35,9.25 19.26,9.25 
				19.26,1.01 			"/>
		</g>
	</g>
</g>
</svg>
