<svg width="62" height="62" viewBox="0 0 62 62" fill="none" xmlns="http://www.w3.org/2000/svg">
<path d="M60.51 0H21.8701C21.1601 0 20.5601 0.6 20.5601 1.3C20.5601 2 21.1701 2.6 21.8701 2.6H59.3V39.6H21.8701C21.1601 39.6 20.5601 40.2 20.5601 40.9C20.5601 41.6 21.1701 42.2 21.8701 42.2H60.51C61.22 42.2 61.83 41.6 61.83 40.9V1.3C61.83 0.6 61.22 0 60.51 0Z" fill="#711616"/>
<path d="M12.87 39.5V33.1C12.87 32.4 12.26 31.8 11.56 31.8C10.86 31.8 10.25 32.4 10.25 33.1V39.5C10.25 40.2 10.86 40.8 11.56 40.8C12.26 40.8 12.87 40.2 12.87 39.5Z" fill="#711616"/>
<path d="M21.87 29.3C22.58 29.3 23.18 28.7 23.18 28V24.2H34.81C35.52 24.2 36.13 23.6 36.13 22.9V17.8C36.13 17.1 35.52 16.5 34.81 16.5H20.14C19.03 15.3 17.71 14.3 16.19 13.7C18.01 12.3 19.23 10.1 19.23 7.6C19.23 3.4 15.79 0 11.54 0C7.28998 0 3.84998 3.4 3.84998 7.6C3.84998 10.1 5.05997 12.3 6.87997 13.7C2.82997 15.5 0 19.5 0 24.2V28.1C0 28.8 0.609998 29.4 1.31 29.4H5.04999V39.6C5.04999 40.3 5.66 40.9 6.37 40.9C7.08 40.9 7.67999 40.3 7.67999 39.6V24.2C7.67999 23.5 7.06999 22.9 6.37 22.9C5.67 22.9 5.04999 23.5 5.04999 24.2V26.7H2.51999V24.2C2.51999 19.3 6.56999 15.3 11.52 15.3C14.25 15.3 16.88 16.5 18.6 18.6C18.8 18.9 19.21 19.1 19.61 19.1H33.37V21.6H21.74C20.93 21.6 20.32 22.3 20.43 23C20.43 23.4 20.53 23.8 20.53 24.1V26.6H18V24.1C18 23.4 17.39 22.8 16.68 22.8C15.97 22.8 15.37 23.4 15.37 24.1V39.4C15.37 40.1 15.98 40.7 16.68 40.7C17.38 40.7 18 40.1 18 39.4V29.3H21.84H21.87ZM6.38998 7.7C6.38998 4.9 8.71999 2.6 11.55 2.6C14.38 2.6 16.71 4.9 16.71 7.7C16.71 10.5 14.38 12.8 11.55 12.8C8.71999 12.8 6.38998 10.5 6.38998 7.7Z" fill="#711616"/>
<path d="M24.3999 35.7C24.3999 36.4 25.0099 37 25.7199 37H52.8299C53.5399 37 54.1399 36.4 54.1399 35.7C54.1399 35 53.5299 34.4 52.8299 34.4H25.7199C25.0099 34.4 24.3999 35 24.3999 35.7Z" fill="#711616"/>
<path d="M29.56 6.40002H27.03V8.90002H29.56V6.40002Z" fill="#711616"/>
<path d="M38.56 6.40002H36.03V8.90002H38.56V6.40002Z" fill="#711616"/>
<path d="M47.57 6.40002H45.04V8.90002H47.57V6.40002Z" fill="#711616"/>
<path d="M11.45 51.9C12.36 51 12.87 49.8 12.87 48.4C12.87 45.6 10.54 43.3 7.71002 43.3C4.88002 43.3 2.55002 45.6 2.55002 48.4C2.55002 49.8 3.06003 51 3.97003 51.9C1.54003 53.2 0.0300293 55.7 0.0300293 58.6V59.9C0.0300293 60.6 0.640027 61.2001 1.34003 61.2001H14.19C14.9 61.2001 15.5 60.6 15.5 59.9V58.6C15.4 55.8 13.78 53.3 11.45 51.9ZM5.08002 48.4C5.08002 47 6.19002 45.9 7.61002 45.9C9.03002 45.9 10.14 47 10.14 48.4C10.14 49.8 9.03002 50.9 7.61002 50.9C6.29002 51 5.08002 49.8 5.08002 48.4ZM2.55002 58.6C2.55002 55.8 4.88002 53.5 7.71002 53.5C10.54 53.5 12.87 55.8 12.87 58.6H2.55002Z" fill="#711616"/>
<path d="M34.6201 51.9C35.5301 51 36.0401 49.8 36.0401 48.4C36.0401 45.6 33.7101 43.3 30.8801 43.3C28.0501 43.3 25.7201 45.6 25.7201 48.4C25.7201 49.8 26.2301 51 27.1401 51.9C24.7101 53.2 23.0901 55.7 23.0901 58.6V59.9C23.0901 60.6 23.7001 61.2001 24.4001 61.2001H37.2501C37.9601 61.2001 38.5601 60.6 38.5601 59.9V58.6C38.5601 55.8 36.9401 53.3 34.6101 51.9H34.6201ZM28.3401 48.4C28.3401 47 29.4501 45.9 30.8701 45.9C32.2901 45.9 33.4001 47 33.4001 48.4C33.4001 49.8 32.2901 50.9 30.8701 50.9C29.4501 50.9 28.3401 49.8 28.3401 48.4ZM25.7201 58.6C25.7201 55.8 28.0501 53.5 30.8801 53.5C33.7101 53.5 36.0401 55.8 36.0401 58.6H25.7201Z" fill="#711616"/>
<path d="M57.7801 51.9C58.6901 51 59.2001 49.8 59.2001 48.4C59.2001 45.6 56.8701 43.3 54.0401 43.3C51.2101 43.3 48.8801 45.6 48.8801 48.4C48.8801 49.8 49.3901 51 50.3001 51.9C47.8701 53.2 46.3501 55.7 46.3501 58.6V59.9C46.3501 60.6 46.9601 61.2001 47.6601 61.2001H60.5101C61.2201 61.2001 61.8301 60.6 61.8301 59.9V58.6C61.8301 55.8 60.2101 53.3 57.7801 51.9ZM51.5101 48.4C51.5101 47 52.6201 45.9 54.0401 45.9C55.4601 45.9 56.5701 47 56.5701 48.4C56.5701 49.8 55.4601 50.9 54.0401 50.9C52.6201 51 51.5101 49.8 51.5101 48.4ZM48.8801 58.6C48.8801 55.8 51.2101 53.5 54.0401 53.5C56.8701 53.5 59.2001 55.8 59.2001 58.6H48.8801Z" fill="#711616"/>
</svg>
