<svg width="62" height="62" viewBox="0 0 62 62" fill="none" xmlns="http://www.w3.org/2000/svg">
<path d="M56.93 22.9C55.51 22.9 54.1 23.4 53.09 24.5L49.35 26.7H42.57C40.45 26.7 38.73 28.4 38.73 30.5C38.73 30.9 38.83 31.4 38.93 31.8H34.18L25.58 20.8C25.38 20.5 24.97 20.3 24.67 20.3L7.88 19C7.37 19 6.87 19.2 6.67 19.6C6.47 20 6.47 20.6 6.77 21L14.26 31.8H1.31C0.599998 31.8 0 32.4 0 33.1C0 33.8 0.609998 34.4 1.31 34.4H6.47V59.9C6.47 60.6 7.08 61.2 7.78 61.2C8.48 61.2 9.10001 60.6 9.10001 59.9V34.3H29.74V59.8C29.74 60.5 30.35 61.1 31.05 61.1C31.75 61.1 32.36 60.5 32.36 59.8V34.3H50.37C50.77 34.3 51.28 34.2 51.68 34.1V40.7H47.84C46.83 40.7 45.82 41.1 45.11 41.8C45.01 41.9 45.62 41.1 35.4 55.2C35 55.8 35.1 56.6 35.7 57C36.31 57.4 37.12 57.3 37.52 56.7L47.03 43.5C47.23 43.3 47.54 43.2 47.84 43.2H53C53.71 43.2 54.32 42.6 54.32 41.9V31.9C54.32 31.4 54.12 31 53.71 30.8C53.3 30.6 52.8 30.6 52.39 30.8L51.18 31.5C50.98 31.6 50.78 31.7 50.47 31.7H42.78C42.07 31.7 41.46 31.1 41.46 30.4C41.46 29.7 42.07 29.1 42.78 29.1H49.76C49.96 29.1 50.27 29 50.47 28.9L54.72 26.4C54.82 26.3 54.92 26.2 55.02 26.1C55.53 25.5 56.23 25.2 57.04 25.2C58.46 25.3 59.57 26.4 59.57 27.7V43C59.57 44.4 58.46 45.5 57.04 45.5H49.05C48.65 45.5 48.24 45.7 48.04 46L39.24 58.5C38.84 59.1 38.94 59.9 39.54 60.3C40.15 60.7 40.96 60.6 41.36 60L49.76 48H56.74C59.57 48 61.9 45.7 61.9 42.9V28C61.9 25.2 59.78 23 56.94 22.9H56.93ZM10.4 21.8L23.85 22.8L30.93 31.8H17.37L10.39 21.8H10.4Z" fill="#711616"/>
<path d="M55.4099 21.6C58.9499 21.6 61.8799 18.7 61.8799 15.2C61.8799 11.7 58.9499 8.80005 55.4099 8.80005C51.8699 8.80005 48.9399 11.7 48.9399 15.2C48.9399 18.7 51.8699 21.6 55.4099 21.6ZM55.4099 11.4C57.5299 11.4 59.2499 13.1 59.2499 15.2C59.2499 17.3 57.5299 19 55.4099 19C53.2899 19 51.5699 17.3 51.5699 15.2C51.5699 13.1 53.2899 11.4 55.4099 11.4Z" fill="#711616"/>
<path d="M33.46 17.8C38.42 17.8 42.46 13.8 42.46 8.9C42.46 4 38.42 0 33.46 0C28.5 0 24.46 4 24.46 8.9C24.46 13.8 28.51 17.8 33.46 17.8ZM33.46 2.5C37 2.5 39.9299 5.4 39.9299 8.9C39.9299 12.4 37 15.3 33.46 15.3C29.92 15.3 26.99 12.4 26.99 8.9C27.09 5.3 29.92 2.5 33.46 2.5Z" fill="#711616"/>
</svg>
