<svg width="62" height="62" viewBox="0 0 62 62" fill="none" xmlns="http://www.w3.org/2000/svg">
<path d="M56.95 23C55.53 23 54.12 23.5 53.11 24.6L49.37 26.8H42.59V24.3C42.59 18.7 37.43 14.1 30.96 14.1C24.49 14.1 19.33 18.6 19.33 24.2C19.33 24.9 19.94 25.5 20.65 25.5C21.36 25.5 21.96 24.9 21.96 24.2C21.96 20 26.01 16.6 30.96 16.6C35.91 16.6 39.96 20 39.96 24.2V27.7C38.75 28.7 38.34 30.4 38.85 31.8H22.97C23.07 31.4 23.17 31 23.17 30.5C23.17 28.4 21.45 26.7 19.33 26.7H12.65L8.91 24.5C7.9 23.5 6.48 22.9 4.96 22.9C2.13 23 0 25.2 0 28V43.3C0 46.1 2.33 48.4 5.16 48.4H12.44L20.84 60.4C21.24 61 22.05 61.1 22.66 60.7C23.27 60.3 23.37 59.5 22.96 58.9L14.16 46.4C13.96 46.1 13.55 45.9 13.15 45.9H5.16C3.74 45.9 2.63 44.8 2.63 43.4V28.1C2.63 26.7 3.74 25.5 5.26 25.6C5.97 25.6 6.68 25.9 7.08 26.5C7.18 26.6 7.28 26.7 7.38 26.8L11.63 29.3C11.83 29.4 12.03 29.5 12.34 29.5H19.32C20.03 29.5 20.64 30.1 20.64 30.8C20.64 31.5 20.03 32.1 19.32 32.1H11.63C11.43 32.1 11.12 32 10.92 31.9L9.71 31.2C9.3 31 8.8 31 8.39 31.2C7.99 31.4 7.78 31.9 7.78 32.3V42.3C7.78 43 8.39 43.6 9.1 43.6H14.26C14.56 43.6 14.87 43.7 15.07 43.9L24.58 57.1C24.98 57.7 25.79 57.8 26.4 57.4C27.01 57 27.11 56.2 26.7 55.6C16.38 41.2 17.09 42.1 16.89 41.9C16.18 41.2 15.17 40.8 14.16 40.8H10.32V34.2C10.72 34.3 11.13 34.4 11.64 34.4H29.65V59.9C29.65 60.6 30.26 61.2 30.97 61.2C31.68 61.2 32.28 60.6 32.28 59.9V34.4H50.29C50.69 34.4 51.2 34.3 51.6 34.2V40.8H47.76C46.75 40.8 45.74 41.2 45.03 41.9C44.93 42 45.54 41.2 35.32 55.3C34.92 55.9 35.02 56.7 35.62 57.1C36.23 57.5 37.04 57.4 37.44 56.8L46.95 43.6C47.15 43.4 47.46 43.3 47.76 43.3H52.92C53.63 43.3 54.24 42.7 54.24 42V32C54.24 31.5 54.04 31.1 53.63 30.9C53.23 30.7 52.72 30.7 52.32 30.9L51.11 31.6C50.91 31.7 50.71 31.8 50.4 31.8H42.71C42 31.8 41.39 31.2 41.39 30.5C41.39 29.8 42 29.2 42.71 29.2H49.69C49.89 29.2 50.2 29.1 50.4 29L54.65 26.5C54.75 26.4 54.85 26.3 54.95 26.2C55.46 25.6 56.16 25.3 56.97 25.3C58.39 25.4 59.5 26.5 59.5 27.8V43.1C59.5 44.5 58.39 45.6 56.97 45.6H48.98C48.58 45.6 48.17 45.8 47.97 46.1L39.17 58.6C38.77 59.2 38.87 60 39.47 60.4C40.08 60.8 40.89 60.7 41.29 60.1L49.69 48.1H56.77C59.6 48.1 61.93 45.8 61.93 43V28.1C61.93 25.3 59.81 23.1 56.97 23H56.95Z" fill="#711616"/>
<path d="M55.4402 21.7C58.9802 21.7 61.9102 18.8 61.9102 15.3C61.9102 11.8 58.9802 8.90002 55.4402 8.90002C51.9002 8.90002 48.9702 11.8 48.9702 15.3C48.9702 18.8 51.9002 21.7 55.4402 21.7ZM55.4402 11.5C57.5602 11.5 59.2802 13.2 59.2802 15.3C59.2802 17.4 57.5602 19.1 55.4402 19.1C53.3202 19.1 51.6002 17.4 51.6002 15.3C51.6002 13.2 53.3202 11.5 55.4402 11.5Z" fill="#711616"/>
<path d="M6.47 21.7C10.01 21.7 12.94 18.8 12.94 15.3C12.94 11.8 10.01 8.90002 6.47 8.90002C2.93 8.90002 0 11.8 0 15.3C0 18.8 2.93 21.7 6.47 21.7ZM6.47 11.5C8.59 11.5 10.31 13.2 10.31 15.3C10.31 17.4 8.59 19.1 6.47 19.1C4.35 19.1 2.63 17.4 2.63 15.3C2.63 13.2 4.35 11.5 6.47 11.5Z" fill="#711616"/>
<path d="M30.95 12.8C34.49 12.8 37.42 9.9 37.42 6.4C37.42 2.9 34.49 0 30.95 0C27.41 0 24.48 2.9 24.48 6.4C24.48 9.9 27.41 12.8 30.95 12.8ZM30.95 2.6C33.07 2.6 34.79 4.3 34.79 6.4C34.79 8.5 33.07 10.2 30.95 10.2C28.83 10.2 27.11 8.5 27.11 6.4C27.11 4.3 28.83 2.6 30.95 2.6Z" fill="#711616"/>
</svg>
