<svg width="186" height="186" viewBox="0 0 186 186" fill="none" xmlns="http://www.w3.org/2000/svg">
<g clip-path="url(#clip0_32_28)">
<path d="M17.8767 147.83L38.1701 168.14C42.1465 171.054 46.2772 173.659 50.5621 175.87L10.1467 135.438C12.3406 139.74 14.9801 143.853 17.8767 147.83Z" fill="#E6E6E6"/>
<path d="M1.95396 112.282L73.7179 184.046C75.5861 184.44 77.4543 184.732 79.3397 185.006L0.994141 106.66C1.26838 108.546 1.55975 110.414 1.95396 112.282Z" fill="#E6E6E6"/>
<path d="M99.753 185.794L0.205676 86.2469C0.102838 87.7381 0.0342794 89.2121 0 90.6861L95.3139 186C96.805 185.966 98.279 185.897 99.7702 185.794H99.753Z" fill="#E6E6E6"/>
<path d="M116.584 183.001L2.99947 69.4158C2.67381 70.6498 2.3653 71.901 2.09106 73.1694L112.848 183.926C114.099 183.652 115.333 183.343 116.584 183.018V183.001Z" fill="#E6E6E6"/>
<path d="M131.101 177.876L8.12416 54.8984C7.66139 55.9611 7.09578 57.0066 6.65015 58.0864L127.914 179.35C128.993 178.921 130.039 178.356 131.101 177.876Z" fill="#E6E6E6"/>
<path d="M143.871 170.986L14.9972 42.1294C14.3802 43.0892 13.866 44.0833 13.2661 45.0603L140.923 172.734C141.9 172.151 142.894 171.62 143.853 171.003L143.871 170.986Z" fill="#E6E6E6"/>
<path d="M154.909 162.399L23.6014 31.0914C22.8644 31.9141 22.0931 32.7026 21.3904 33.5424L152.441 164.61C153.28 163.907 154.069 163.136 154.891 162.399H154.909Z" fill="#E6E6E6"/>
<path d="M164.61 152.458L33.5425 21.3903C32.7026 22.093 31.9142 22.8643 31.1086 23.6013L162.416 154.909C163.153 154.086 163.924 153.297 164.627 152.458H164.61Z" fill="#E6E6E6"/>
<path d="M172.717 140.94L45.0603 13.2833C44.0833 13.866 43.0892 14.3802 42.1294 15.0144L170.986 143.871C171.62 142.911 172.134 141.917 172.717 140.94Z" fill="#E6E6E6"/>
<path d="M179.333 127.914L58.0693 6.66736C56.9895 7.09585 55.944 7.66146 54.8813 8.12423L177.859 131.102C178.339 130.039 178.887 128.993 179.316 127.914H179.333Z" fill="#E6E6E6"/>
<path d="M183.892 112.848L73.1522 2.09106C71.901 2.3653 70.667 2.69095 69.4158 3.01661L182.983 116.601C183.309 115.35 183.618 114.116 183.909 112.848H183.892Z" fill="#E6E6E6"/>
<path d="M186 95.3139L90.6861 0C89.1949 0.0342794 87.7209 0.102838 86.2297 0.205676L185.794 99.753C185.897 98.279 185.966 96.7879 186 95.2967V95.3139Z" fill="#E6E6E6"/>
<path d="M184.029 73.7178L112.282 1.97105C110.431 1.57684 108.546 1.28547 106.66 1.01123L185.006 79.3397C184.732 77.4543 184.44 75.5861 184.029 73.735V73.7178Z" fill="#E6E6E6"/>
<path d="M168.141 38.1873L147.813 17.8596C143.836 14.9458 139.723 12.3406 135.438 10.1296L175.871 50.545C173.677 46.2601 171.054 42.1465 168.141 38.1701V38.1873Z" fill="#E6E6E6"/>
</g>
<defs>
<clipPath id="clip0_32_28">
<rect width="186" height="186" fill="white"/>
</clipPath>
</defs>
</svg>
