<svg width="62" height="62" viewBox="0 0 62 62" fill="none" xmlns="http://www.w3.org/2000/svg">
<path d="M42.5799 19.1C42.5799 12.1 36.8099 6.40002 29.7299 6.40002C22.6499 6.40002 16.8799 12.1 16.8799 19.1C16.8799 26.1 22.6499 31.8 29.7299 31.8C36.8099 31.9 42.5799 26.2 42.5799 19.1ZM25.7899 28.6V24.2C25.7899 22.1 27.5099 20.4 29.6299 20.4C31.7499 20.4 33.4699 22.1 33.4699 24.2V28.6C31.1399 29.5 28.3099 29.6 25.7799 28.6H25.7899ZM28.4199 16.6C28.4199 15.9 29.0299 15.3 29.7299 15.3C30.4299 15.3 31.0499 15.9 31.0499 16.6C31.0499 17.3 30.4399 17.9 29.7299 17.9C28.9199 17.9 28.4199 17.3 28.4199 16.6ZM19.3199 19.1C19.3199 13.5 23.9699 8.90002 29.6399 8.90002C35.3099 8.90002 39.9599 13.5 39.9599 19.1C39.9599 22.3 38.4399 25.2 36.1199 27.1V24.2C36.1199 21.8 34.8099 19.8 32.8799 18.7C33.2799 18.1 33.4899 17.4 33.4899 16.6C33.4899 14.5 31.7699 12.8 29.6499 12.8C27.5299 12.8 25.8099 14.5 25.8099 16.6C25.8099 17.4 26.0099 18.1 26.4199 18.7C24.4999 19.8 23.1799 21.9 23.1799 24.2V27.1C20.8499 25.2 19.3399 22.3 19.3399 19.1H19.3199Z" fill="#711616"/>
<path d="M61.5 59C61.1 58.6 60.59 58.5 60.19 58.7C58.47 58.9 46.13 58.9 31.76 58.8C35.71 51.6 49.16 27.2 48.96 19.1C48.86 8.5 40.26 0 29.64 0C19.02 0 10.42 8.5 10.32 19.1C10.22 27.8 23.17 51.2 27.52 58.8C12.04 58.7 1.71999 58.6 1.31999 58.6C0.609992 58.6 0 59.2 0 59.9C0 60.6 0.609992 61.2 1.31999 61.2C7.68999 61.2 53.62 61.6 59.99 61.3C60.8 61.3 61.51 61.2 61.81 60.4C62.01 59.9 61.91 59.4 61.51 59H61.5ZM12.95 19.1C13.05 10 20.54 2.5 29.74 2.5C38.94 2.5 46.33 9.8 46.53 19.1C46.53 21.5 45.01 27.5 37.73 42.3C34.59 48.6 31.46 54.4 29.84 57.3C28.22 54.4 25.09 48.8 21.95 42.6C14.36 28.1 12.85 21.8 12.95 19.1Z" fill="#711616"/>
<path d="M30.9499 37H28.4199V39.5H30.9499V37Z" fill="#711616"/>
<path d="M30.9499 42.1H28.4199V44.6H30.9499V42.1Z" fill="#711616"/>
<path d="M8.99997 42.1H6.46997V44.6H8.99997V42.1Z" fill="#711616"/>
<path d="M55.4299 43.3H52.8999V45.8H55.4299V43.3Z" fill="#711616"/>
<path d="M30.9499 47.2H28.4199V49.7H30.9499V47.2Z" fill="#711616"/>
</svg>
