<svg width="29" height="30" viewBox="0 0 29 30" fill="none" xmlns="http://www.w3.org/2000/svg">
<path fill-rule="evenodd" clip-rule="evenodd" d="M25.283 0.424316H3.71695C1.67463 0.424316 0 2.09913 0 4.14121V25.7074C0 27.7494 1.67463 29.4243 3.71695 29.4243H25.283C27.3256 29.4243 29 27.7494 29 25.7074V4.14121C29 2.09913 27.3256 0.424316 25.283 0.424316ZM9.96875 14.4296V23.3826H6.04167V12.0847H9.96875V14.4296ZM7.99735 10.4008C6.90484 10.4008 6.01835 9.51497 6.01835 8.42179C6.01835 7.32843 6.90484 6.44369 7.99735 6.44369C9.09138 6.44369 9.97703 7.32849 9.97703 8.42179C9.97703 9.51497 9.09144 10.4008 7.99735 10.4008ZM22.9583 17.2201V23.3826H19.575V17.8948C19.575 16.5808 19.4327 14.8907 17.6318 14.8907C15.8034 14.8907 15.5271 16.3213 15.5271 17.8001V23.3826H12.2646V12.0847H15.4062V13.5951H15.4397C15.9083 12.7493 17.0563 12.0835 18.7657 12.0835C21.6459 12.0835 22.6247 13.4455 22.8925 15.5763C22.956 16.0764 22.9806 16.616 22.9806 17.2201H22.9583Z" fill="white"/>
</svg>
