<svg width="29" height="30" viewBox="0 0 29 30" fill="none" xmlns="http://www.w3.org/2000/svg">
<path d="M22.243 5.44132C21.8989 5.44132 21.5624 5.54337 21.2763 5.73456C20.9902 5.92575 20.7671 6.1975 20.6355 6.51545C20.5038 6.83339 20.4693 7.18325 20.5364 7.52077C20.6036 7.8583 20.7693 8.16834 21.0126 8.41168C21.256 8.65503 21.566 8.82074 21.9035 8.88788C22.2411 8.95502 22.5909 8.92056 22.9089 8.78887C23.2268 8.65717 23.4986 8.43415 23.6898 8.14801C23.881 7.86187 23.983 7.52546 23.983 7.18132C23.983 6.71984 23.7997 6.27726 23.4734 5.95095C23.1471 5.62464 22.7045 5.44132 22.243 5.44132ZM28.913 8.95032C28.8848 7.74725 28.6595 6.55695 28.246 5.42682C27.8773 4.45986 27.3035 3.58427 26.564 2.86032C25.846 2.11708 24.9684 1.54687 23.9975 1.19282C22.8704 0.76675 21.6787 0.536271 20.474 0.511316C18.937 0.424316 18.444 0.424316 14.5 0.424316C10.556 0.424316 10.063 0.424316 8.526 0.511316C7.32127 0.536271 6.12965 0.76675 5.0025 1.19282C4.03343 1.55046 3.15655 2.12018 2.436 2.86032C1.69277 3.57832 1.12256 4.45595 0.7685 5.42682C0.342433 6.55396 0.111954 7.74559 0.0869999 8.95032C-8.10251e-08 10.4873 0 10.9803 0 14.9243C0 18.8683 -8.10251e-08 19.3613 0.0869999 20.8983C0.111954 22.103 0.342433 23.2947 0.7685 24.4218C1.12256 25.3927 1.69277 26.2703 2.436 26.9883C3.15655 27.7285 4.03343 28.2982 5.0025 28.6558C6.12965 29.0819 7.32127 29.3124 8.526 29.3373C10.063 29.4243 10.556 29.4243 14.5 29.4243C18.444 29.4243 18.937 29.4243 20.474 29.3373C21.6787 29.3124 22.8704 29.0819 23.9975 28.6558C24.9684 28.3018 25.846 27.7316 26.564 26.9883C27.3068 26.2671 27.8811 25.3907 28.246 24.4218C28.6595 23.2917 28.8848 22.1014 28.913 20.8983C28.913 19.3613 29 18.8683 29 14.9243C29 10.9803 29 10.4873 28.913 8.95032ZM26.303 20.7243C26.2924 21.6447 26.1257 22.5567 25.81 23.4213C25.5785 24.0523 25.2066 24.6225 24.7225 25.0888C24.2522 25.5681 23.6832 25.9391 23.055 26.1763C22.1904 26.4921 21.2784 26.6588 20.358 26.6693C18.908 26.7418 18.3715 26.7563 14.558 26.7563C10.7445 26.7563 10.208 26.7563 8.758 26.6693C7.80229 26.6872 6.85066 26.5401 5.945 26.2343C5.34438 25.985 4.80147 25.6149 4.35 25.1468C3.86873 24.681 3.50152 24.1103 3.277 23.4793C2.92299 22.6023 2.72664 21.6696 2.697 20.7243C2.697 19.2743 2.61 18.7378 2.61 14.9243C2.61 11.1108 2.61 10.5743 2.697 9.12432C2.7035 8.18335 2.87528 7.25084 3.2045 6.36932C3.45977 5.75729 3.85158 5.21172 4.35 4.77432C4.79053 4.27576 5.33497 3.87981 5.945 3.61432C6.82885 3.29538 7.7604 3.12868 8.7 3.12132C10.15 3.12132 10.6865 3.03432 14.5 3.03432C18.3135 3.03432 18.85 3.03432 20.3 3.12132C21.2204 3.13187 22.1324 3.29857 22.997 3.61432C23.6559 3.85886 24.2473 4.25644 24.7225 4.77432C25.1977 5.21973 25.569 5.76428 25.81 6.36932C26.1323 7.25227 26.2991 8.1844 26.303 9.12432C26.3755 10.5743 26.39 11.1108 26.39 14.9243C26.39 18.7378 26.3755 19.2743 26.303 20.7243ZM14.5 7.48582C13.0294 7.48868 11.5927 7.92738 10.3713 8.74647C9.15 9.56557 8.19885 10.7283 7.63807 12.0878C7.07729 13.4472 6.93205 14.9424 7.2207 16.3844C7.50935 17.8263 8.21894 19.1504 9.25981 20.1892C10.3007 21.2281 11.6261 21.9351 13.0686 22.2209C14.5112 22.5068 16.0061 22.3586 17.3644 21.7952C18.7228 21.2318 19.8837 20.2784 20.7004 19.0554C21.5171 17.8325 21.953 16.3949 21.953 14.9243C21.9549 13.9457 21.7633 12.9764 21.3893 12.0721C21.0153 11.1678 20.4661 10.3464 19.7735 9.65509C19.0808 8.96379 18.2583 8.41625 17.3533 8.04396C16.4483 7.67168 15.4786 7.48199 14.5 7.48582ZM14.5 19.7528C13.545 19.7528 12.6115 19.4696 11.8174 18.9391C11.0234 18.4085 10.4045 17.6544 10.039 16.7721C9.67359 15.8898 9.57797 14.919 9.76428 13.9823C9.95059 13.0457 10.4105 12.1853 11.0857 11.5101C11.761 10.8348 12.6214 10.3749 13.558 10.1886C14.4946 10.0023 15.4655 10.0979 16.3478 10.4634C17.2301 10.8288 17.9842 11.4477 18.5148 12.2417C19.0453 13.0358 19.3285 13.9693 19.3285 14.9243C19.3285 15.5584 19.2036 16.1863 18.961 16.7721C18.7183 17.3579 18.3626 17.8902 17.9143 18.3386C17.4659 18.7869 16.9336 19.1426 16.3478 19.3853C15.762 19.6279 15.1341 19.7528 14.5 19.7528Z" fill="white"/>
</svg>
