<svg width="62" height="62" viewBox="0 0 62 62" fill="none" xmlns="http://www.w3.org/2000/svg">
<path d="M16.19 22.8C18.01 21.4 19.22 19.2 19.22 16.7C19.22 12.5 15.78 9.09998 11.53 9.09998C7.28 9.09998 3.84 12.5 3.84 16.7C3.84 19.2 5.04999 21.4 6.87999 22.8C2.82999 24.6 0 28.6 0 33.3V43.5C0 44.2 0.609998 44.8 1.31 44.8H5.04999V60.1C5.04999 60.8 5.66 61.4 6.37 61.4C7.08 61.4 7.67999 60.8 7.67999 60.1V39.6C7.67999 38.9 7.06999 38.3 6.37 38.3C5.67 38.3 5.04999 38.9 5.04999 39.6V42.2H2.51999V33.2C2.51999 28.3 6.56999 24.3 11.52 24.3C16.47 24.3 20.52 28.3 20.52 33.2V42.2H17.99V39.7C17.99 39 17.38 38.4 16.68 38.4C15.98 38.4 15.36 39 15.36 39.7V60.1C15.36 60.8 15.97 61.4 16.68 61.4C17.39 61.4 17.99 60.8 17.99 60.1V44.7H21.83C22.54 44.7 23.15 44.1 23.15 43.4V33.2C23.15 28.6 20.22 24.5 16.17 22.8H16.19ZM6.37 16.7C6.37 13.9 8.7 11.6 11.53 11.6C14.36 11.6 16.69 13.9 16.69 16.7C16.69 19.5 14.36 21.8 11.53 21.8C8.7 21.8 6.37 19.5 6.37 16.7Z" fill="#711616"/>
<path d="M11.53 48.5C10.82 48.5 10.21 49.1 10.21 49.8V60C10.21 60.7 10.82 61.3 11.53 61.3C12.24 61.3 12.84 60.7 12.84 60V49.8C12.84 49.1 12.23 48.5 11.53 48.5Z" fill="#711616"/>
<path d="M12.75 32H10.22V34.5H12.75V32Z" fill="#711616"/>
<path d="M54.93 22.8C56.75 21.4 57.97 19.2 57.97 16.7C57.97 12.5 54.53 9.09998 50.28 9.09998C46.03 9.09998 42.59 12.5 42.59 16.7C42.59 19.2 43.8 21.4 45.62 22.8C41.57 24.6 38.74 28.6 38.74 33.3V43.5C38.74 44.2 39.35 44.8 40.06 44.8H43.9V60.1C43.9 60.8 44.51 61.4 45.22 61.4C45.93 61.4 46.54 60.8 46.54 60.1V39.6C46.54 38.9 45.93 38.3 45.22 38.3C44.51 38.3 43.9 38.9 43.9 39.6V42.2H41.37V33.2C41.37 28.3 45.42 24.3 50.37 24.3C55.32 24.3 59.37 28.3 59.37 33.2V42.2H56.64V39.7C56.64 39 56.03 38.4 55.33 38.4C54.63 38.4 54.01 39 54.01 39.7V60.1C54.01 60.8 54.62 61.4 55.33 61.4C56.04 61.4 56.64 60.8 56.64 60.1V44.7H60.48C61.19 44.7 61.79 44.1 61.79 43.4V33.2C61.79 28.6 58.96 24.5 54.91 22.8H54.93ZM45.02 16.7C45.02 13.9 47.35 11.6 50.18 11.6C53.01 11.6 55.34 13.9 55.34 16.7C55.34 19.5 53.01 21.8 50.18 21.8C47.35 21.8 45.02 19.5 45.02 16.7Z" fill="#711616"/>
<path d="M50.1801 48.5C49.4701 48.5 48.8601 49.1 48.8601 49.8V60C48.8601 60.7 49.4701 61.3 50.1801 61.3C50.8901 61.3 51.4901 60.7 51.4901 60V49.8C51.4901 49.1 50.8801 48.5 50.1801 48.5Z" fill="#711616"/>
<path d="M51.3901 32H48.8601V34.5H51.3901V32Z" fill="#711616"/>
<path d="M38.5399 21.8C39.2499 21.8 39.8599 21.2 39.8599 20.5C39.8599 19.8 39.2499 19.2 38.5399 19.2H37.2299V18.2C39.6599 16.3 41.0699 13.3 41.0699 10.2C41.0699 4.6 36.4199 0 30.7499 0C25.0799 0 20.4299 4.6 20.4299 10.2C20.4299 13.3 21.8499 16.2 24.2699 18.2V19.2H22.9499C22.2399 19.2 21.6299 19.8 21.6299 20.5C21.6299 21.2 22.2399 21.8 22.9499 21.8H24.2699V24.3C24.2699 25 24.8799 25.6 25.5799 25.6H26.8999V29.4C26.8999 30.1 27.5099 30.7 28.2099 30.7H33.3699C34.0799 30.7 34.6899 30.1 34.6899 29.4V25.6H36.0099C36.7199 25.6 37.3199 25 37.3199 24.3V21.8H38.5299H38.5399ZM26.3999 16.6C24.2799 15.2 23.0599 12.8 23.0599 10.3C23.0599 6.1 26.4999 2.7 30.7499 2.7C34.9999 2.7 38.4399 6.1 38.4399 10.3C38.4399 12.8 37.2299 15.1 35.0999 16.6C34.7999 16.8 34.5899 17.2 34.5899 17.6V19.2H32.0599V11.6C32.0599 10.9 31.4499 10.3 30.7399 10.3C30.0299 10.3 29.4199 10.9 29.4199 11.6V19.2H26.8899V17.6C26.9899 17.2 26.7899 16.8 26.3799 16.6H26.3999ZM32.1699 28.2H29.6399V25.7H32.1699V28.2ZM34.6999 23.1H27.0099V21.8H34.6999V23.1Z" fill="#711616"/>
</svg>
