<svg width="62" height="62" viewBox="0 0 62 62" fill="none" xmlns="http://www.w3.org/2000/svg">
<path d="M60.3899 0H21.7499C21.0399 0 20.4399 0.6 20.4399 1.3C20.4399 2 21.0499 2.6 21.7499 2.6H59.1799V58.7H21.7499C21.0399 58.7 20.4399 59.3 20.4399 60C20.4399 60.7 21.0499 61.3 21.7499 61.3H60.3899C61.0999 61.3 61.7099 60.7 61.7099 60V1.3C61.7099 0.6 61.0999 0 60.3899 0Z" fill="#711616"/>
<path d="M21.75 40.8C22.46 40.8 23.07 40.2 23.07 39.5V29.3C23.07 24.6 20.24 20.6 16.19 18.8C18.01 17.4 19.22 15.2 19.22 12.7C19.22 8.49998 15.78 5.09998 11.53 5.09998C7.28 5.09998 3.84 8.49998 3.84 12.7C3.84 15.2 5.05 17.4 6.88 18.8C2.83 20.6 0 24.6 0 29.3V39.5C0 40.2 0.61 40.8 1.32 40.8H4.96V56.1C4.96 56.8 5.57 57.4 6.27 57.4C6.97 57.4 7.59 56.8 7.59 56.1V35.7C7.59 35 6.98 34.4 6.27 34.4C5.56 34.4 4.96 35 4.96 35.7V38.2H2.43V29.3C2.43 24.4 6.48 20.4 11.43 20.4C16.38 20.4 20.43 24.4 20.43 29.3V38.2H17.9V35.7C17.9 35 17.29 34.4 16.58 34.4C15.87 34.4 15.27 35 15.27 35.7V56.1C15.27 56.8 15.88 57.4 16.58 57.4C17.28 57.4 17.9 56.8 17.9 56.1V40.8H21.74H21.75ZM6.27 12.8C6.27 9.99998 8.6 7.69998 11.43 7.69998C14.26 7.69998 16.59 9.99998 16.59 12.8C16.59 15.6 14.26 17.9 11.43 17.9C8.6 17.9 6.27 15.6 6.27 12.8Z" fill="#711616"/>
<path d="M11.4301 44.6C10.7201 44.6 10.1201 45.2 10.1201 45.9V56.1C10.1201 56.8 10.7301 57.4 11.4301 57.4C12.1301 57.4 12.7501 56.8 12.7501 56.1V45.9C12.7501 45.2 12.1401 44.6 11.4301 44.6Z" fill="#711616"/>
<path d="M30.75 11.5C30.75 12.2 31.36 12.8 32.07 12.8H51.59L48.05 15.6C47.44 16 47.44 16.8 47.85 17.4C48.25 18 49.06 18 49.67 17.6L56.14 12.5C56.75 12 56.75 11 56.14 10.5L49.67 5.39999C49.16 4.99999 48.25 4.99999 47.85 5.59999C47.44 6.09999 47.44 6.99999 48.05 7.39999L51.59 10.2H32.07C31.36 10.2 30.75 10.8 30.75 11.5Z" fill="#711616"/>
<path d="M29.4401 56.1H55.2301C55.9401 56.1 56.5501 55.5 56.5501 54.8C56.5501 54.1 55.9401 53.5 55.2301 53.5H29.4401C28.7301 53.5 28.1201 54.1 28.1201 54.8C28.2201 55.5 28.7301 56.1 29.4401 56.1Z" fill="#711616"/>
<path d="M48.7601 40.8C51.5901 40.8 53.9201 38.5 53.9201 35.7C53.9201 32.9 51.5901 30.6 48.7601 30.6C45.9301 30.6 43.6001 32.9 43.6001 35.7C43.6001 38.5 45.9301 40.8 48.7601 40.8ZM48.7601 33.1C50.1801 33.1 51.2901 34.2 51.2901 35.6C51.2901 37 50.1801 38.1 48.7601 38.1C47.3401 38.1 46.2301 37 46.2301 35.6C46.2301 34.3 47.3401 33.1 48.7601 33.1Z" fill="#711616"/>
<path d="M30.7502 20.4H28.2202V22.9H30.7502V20.4Z" fill="#711616"/>
<path d="M37.1301 20.4H34.6001V22.9H37.1301V20.4Z" fill="#711616"/>
<path d="M12.6501 28.1H10.1201V30.6H12.6501V28.1Z" fill="#711616"/>
<path d="M43.5998 20.4H41.0698V22.9H43.5998V20.4Z" fill="#711616"/>
</svg>
