<svg width="221" height="39" viewBox="0 0 221 39" fill="none" xmlns="http://www.w3.org/2000/svg">
<g clip-path="url(#clip0_32_99)">
<path d="M19.8885 13.0134L15.9461 16.8104C15.7267 17.0211 15.7005 17.369 15.8872 17.6133L18.1792 20.604C18.4052 20.8984 18.8374 20.9118 19.0797 20.6307L22.8191 16.2885C23.0123 16.0644 23.0123 15.7265 22.8191 15.499L20.73 13.0535C20.5106 12.7993 20.1275 12.7792 19.8885 13.0101V13.0134Z" fill="#EDEDED"/>
<path d="M43.2615 25.4547L46.9059 20.2861C47.0991 20.062 47.0991 19.7241 46.9059 19.4966L45.1312 17.7638C44.9118 17.5095 44.5287 17.4894 44.2897 17.7203L40.5208 22.2298C40.3014 22.4405 40.2752 22.7885 40.4619 23.0327L42.361 25.4212C42.587 25.7156 43.0192 25.729 43.2615 25.448V25.4547Z" fill="#EDEDED"/>
<path d="M54.4139 2.86023C45.6843 -1.87677 37.6718 0.699139 37.6718 0.699139C33.2382 1.74958 27.77 5.84762 26.1982 7.11885C25.933 7.33295 25.9068 7.73774 26.1491 7.9853L29.1845 11.0864C29.4596 11.3674 29.8885 11.4143 30.2159 11.2002C31.3784 10.4408 34.0928 8.69451 35.7955 7.80465C38.2153 6.54345 41.1459 6.03831 42.4622 5.86435C44.2664 5.67701 46.8991 5.66697 49.9115 6.48324C54.1683 7.63403 57.017 10.1531 58.651 12.4982C58.854 12.7926 59.0439 13.097 59.2141 13.4047C60.3897 15.5224 60.5599 17.6266 60.5698 20.0954C60.5698 20.333 60.5632 20.5839 60.5534 20.8414C60.4126 23.7084 59.4925 26.475 57.9666 28.8836C56.1362 31.774 53.1794 35.2632 49.4695 35.5476C48.9521 35.5877 48.4446 35.3703 48.1041 34.9688C46.8762 33.5303 45.1243 30.9477 44.6234 30.3824C44.1191 29.8103 38.8899 22.959 34.918 18.7439C33.2841 16.8638 31.7254 15.151 30.7366 14.2612C27.8027 11.615 19.3285 2.9907 19.3285 2.9907L16.9382 0.766046C16.0574 0.0166897 14.9081 -0.103743 13.7686 0.0735605C13.3298 0.140467 12.8223 0.247518 12.2623 0.45493C5.612 2.93717 2.09855 9.9925 2.09855 9.9925C2.09855 9.9925 0.120807 13.8664 0.00947661 18.3726C-0.259025 29.0141 5.54978 34.1827 9.15819 36.1397C17.8878 40.8767 25.9003 38.3008 25.9003 38.3008C30.3338 37.2503 35.8021 33.1523 37.3738 31.8811C37.639 31.667 37.6652 31.2622 37.4229 31.0146L34.3875 27.9135C34.1125 27.6325 33.6835 27.5857 33.3561 27.7998C32.1937 28.5591 29.4792 30.3054 27.7765 31.1953C25.3567 32.4565 22.4261 32.9616 21.1098 33.1356C19.3056 33.3229 16.673 33.333 13.6605 32.5167C9.40377 31.3659 6.55503 28.8468 4.9211 26.5018C4.71808 26.2074 4.52817 25.9029 4.3579 25.5952C3.18238 23.4776 3.01211 21.3734 3.00229 18.9045C3.00229 18.667 3.00884 18.4161 3.01866 18.1585C3.15946 15.2915 4.07957 12.5249 5.60545 10.1163C7.43585 7.2259 10.3926 3.73671 14.1026 3.45236C14.6199 3.41221 15.1274 3.62966 15.468 4.0311C16.6959 5.4696 18.4477 8.0522 18.9487 8.61757C19.4529 9.18962 24.6822 16.0409 28.654 20.256C30.288 22.1361 31.8466 23.8489 32.8355 24.7388C35.7693 27.3849 44.2435 36.0092 44.2435 36.0092L46.6339 38.2339C47.5212 38.9832 48.6705 39.107 49.81 38.9297C50.2488 38.8628 50.7563 38.7558 51.3163 38.5483C57.9666 36.0661 61.4768 29.0108 61.4768 29.0108C61.4768 29.0108 63.4545 25.1369 63.5691 20.6307C63.8376 9.98915 58.0288 4.8206 54.4204 2.86358L54.4139 2.86023Z" fill="#EDEDED"/>
<path d="M120.675 17.4326C119.503 17.4326 118.917 18.0314 118.917 19.2291C118.917 20.4267 119.503 21.0724 120.675 21.0724H127.846C129.019 21.0724 129.605 20.4602 129.605 19.2291C129.605 17.998 129.019 17.4326 127.846 17.4326H120.675Z" fill="#EDEDED"/>
<path d="M130.397 27.3181H116.235V11.6351H130.224C131.455 11.6351 132.07 11.0062 132.07 9.74835C132.07 8.4905 131.455 7.86157 130.224 7.86157H114.212C112.833 7.86157 112.146 8.56744 112.146 9.97248V28.9807C112.146 30.3891 112.833 31.0916 114.212 31.0916H130.397C131.628 31.0916 132.244 30.4627 132.244 29.2049C132.244 27.947 131.628 27.3181 130.397 27.3181Z" fill="#EDEDED"/>
<path d="M140.731 13.9265C140.466 13.6288 140.276 13.4783 140.158 13.4783C139.952 13.4783 139.85 13.7325 139.85 14.241V29.295C139.85 30.6432 140.508 31.3156 141.828 31.3156H141.959C143.278 31.3156 143.937 30.6399 143.937 29.295V18.6C143.937 17.9711 143.73 17.4157 143.321 16.9374L140.724 13.9265H140.731Z" fill="#EDEDED"/>
<path d="M160.616 7.68091H160.486C159.166 7.68091 158.508 8.35332 158.508 9.7015V24.8927L144.739 8.75811C144.271 8.1894 143.655 7.90505 142.892 7.90505H140.999C140.295 7.90505 139.971 8.15929 140.03 8.66778C140.03 8.93876 140.119 9.193 140.295 9.43052L158.023 30.2386C158.55 30.9277 159.284 31.2723 160.224 31.2723C161.808 31.2723 162.601 30.4627 162.601 28.8469V9.7015C162.601 8.35332 161.939 7.68091 160.623 7.68091H160.616Z" fill="#EDEDED"/>
<path d="M181.331 17.4326C180.158 17.4326 179.572 18.0314 179.572 19.2291C179.572 20.4267 180.158 21.0724 181.331 21.0724H188.502C189.674 21.0724 190.26 20.4602 190.26 19.2291C190.26 17.998 189.674 17.4326 188.502 17.4326H181.331Z" fill="#EDEDED"/>
<path d="M191.052 27.3181H176.891V11.6351H190.879C192.11 11.6351 192.726 11.0062 192.726 9.74835C192.726 8.4905 192.11 7.86157 190.879 7.86157H174.867C173.488 7.86157 172.801 8.56744 172.801 9.97248V28.9807C172.801 30.3891 173.488 31.0916 174.867 31.0916H191.052C192.284 31.0916 192.899 30.4627 192.899 29.2049C192.899 27.947 192.284 27.3181 191.052 27.3181Z" fill="#EDEDED"/>
<path d="M218.999 7.68091H218.956C218.049 7.68091 217.359 8.1158 216.89 8.98559L209.032 25.5718L201.173 8.98559C200.702 8.1158 200.014 7.68091 199.107 7.68091H199.064C197.159 7.68091 196.615 8.56408 197.437 10.3338L206.894 30.0612C207.07 30.4259 207.3 30.7036 207.578 30.911C207.611 30.9377 207.65 30.9645 207.686 30.9913C207.696 30.9979 207.709 31.0046 207.719 31.0147C207.781 31.0548 207.85 31.0883 207.922 31.1217C208.213 31.2555 208.541 31.3224 208.914 31.3224C208.956 31.3224 208.992 31.3224 209.032 31.3191C209.071 31.3191 209.107 31.3224 209.15 31.3224C209.523 31.3224 209.854 31.2522 210.142 31.1217C210.214 31.0916 210.283 31.0548 210.345 31.0147C210.358 31.008 210.368 31.0013 210.378 30.9913C210.417 30.9645 210.453 30.9411 210.486 30.911C210.761 30.7036 210.993 30.4259 211.17 30.0612L220.626 10.3338C221.448 8.56742 220.905 7.68091 218.999 7.68091Z" fill="#EDEDED"/>
<path d="M99.8696 7.72437H99.827C98.9757 7.72437 98.2586 8.06894 97.6724 8.75808L89.2703 19.0952L80.8681 8.75808C80.282 8.06894 79.5649 7.72437 78.7136 7.72437H78.671C77.3809 7.72437 76.7358 8.3834 76.7358 9.70146V29.2951C76.7358 30.6433 77.3973 31.3157 78.7136 31.3157C80.1216 31.3157 80.8256 30.64 80.8256 29.2951V14.5087L86.7195 21.7447C87.5414 22.765 88.3895 23.2735 89.2703 23.2735C90.1511 23.2735 90.9992 22.765 91.8211 21.7447L97.715 14.5087V29.2951C97.715 30.6433 98.419 31.3157 99.827 31.3157C101.147 31.3157 101.805 30.64 101.805 29.2951V9.70146C101.805 8.3834 101.16 7.72437 99.8696 7.72437Z" fill="#EDEDED"/>
</g>
<defs>
<clipPath id="clip0_32_99">
<rect width="221" height="39" fill="white"/>
</clipPath>
</defs>
</svg>
