<svg width="72" height="43" viewBox="0 0 72 43" fill="none" xmlns="http://www.w3.org/2000/svg">
<path d="M22.5234 14.3476L18.0588 18.5339C17.8103 18.7663 17.7807 19.1498 17.992 19.4191L20.5878 22.7165C20.8436 23.041 21.3331 23.0558 21.6075 22.746L25.8423 17.9585C26.061 17.7114 26.061 17.3389 25.8423 17.0881L23.4764 14.3919C23.228 14.1116 22.7941 14.0894 22.5234 14.3439V14.3476Z" fill="#711616"/>
<path d="M48.9926 28.0645L53.1198 22.366C53.3386 22.1189 53.3386 21.7464 53.1198 21.4956L51.11 19.585C50.8615 19.3047 50.4277 19.2826 50.157 19.5371L45.8888 24.5089C45.6404 24.7413 45.6107 25.1249 45.8221 25.3941L47.9728 28.0276C48.2287 28.3522 48.7182 28.3669 48.9926 28.0571V28.0645Z" fill="#711616"/>
<path d="M61.6217 3.15349C51.7357 -2.0692 42.6618 0.770821 42.6618 0.770821C37.6409 1.92896 31.4482 6.44717 29.6683 7.84874C29.3679 8.08479 29.3382 8.53108 29.6126 8.80402L33.0501 12.2231C33.3616 12.5329 33.8474 12.5846 34.2182 12.3485C35.5346 11.5113 38.6087 9.58595 40.537 8.60485C43.2773 7.21434 46.5961 6.65741 48.0868 6.46561C50.1301 6.25907 53.1114 6.248 56.523 7.14795C61.3436 8.41674 64.5697 11.1941 66.4201 13.7796C66.65 14.1042 66.8651 14.4398 67.0579 14.7791C68.3892 17.1138 68.582 19.4338 68.5931 22.1558C68.5931 22.4177 68.5857 22.6943 68.5746 22.9783C68.4151 26.1392 67.3731 29.1894 65.6451 31.8451C63.5722 35.0318 60.2237 38.8787 56.0224 39.1922C55.4365 39.2365 54.8617 38.9967 54.4761 38.5541C53.0855 36.9682 51.1016 34.1208 50.5342 33.4974C49.9632 32.8667 44.0412 25.313 39.5432 20.6657C37.6928 18.5929 35.9277 16.7044 34.8078 15.7233C31.4853 12.8059 21.8885 3.29733 21.8885 3.29733L19.1815 0.844588C18.184 0.0184009 16.8824 -0.114379 15.592 0.0811026C15.0951 0.154869 14.5203 0.272896 13.8862 0.501573C6.35489 3.23832 2.376 11.017 2.376 11.017C2.376 11.017 0.136257 15.2881 0.010179 20.2563C-0.293892 31.9889 6.28443 37.6874 10.3709 39.8451C20.2569 45.0677 29.3308 42.2277 29.3308 42.2277C34.3517 41.0696 40.5444 36.5514 42.3243 35.1498C42.6247 34.9137 42.6543 34.4675 42.3799 34.1945L38.9424 30.7754C38.631 30.4656 38.1452 30.414 37.7744 30.65C36.458 31.4873 33.3839 33.4126 31.4556 34.3937C28.7153 35.7842 25.3964 36.3411 23.9057 36.5329C21.8625 36.7395 18.8811 36.7505 15.4696 35.8506C10.649 34.5818 7.42285 31.8045 5.57246 29.219C5.34255 28.8944 5.12748 28.5587 4.93465 28.2194C3.60341 25.8847 3.41059 23.5647 3.39946 20.8427C3.39946 20.5809 3.40688 20.3043 3.418 20.0202C3.57746 16.8593 4.61946 13.8091 6.34747 11.1535C8.42035 7.96677 11.7688 4.11983 15.9702 3.80632C16.5561 3.76206 17.1309 4.0018 17.5165 4.4444C18.9071 6.03039 20.891 8.87778 21.4583 9.50111C22.0294 10.1318 27.9514 17.6855 32.4494 22.3328C34.2998 24.4057 36.0649 26.2941 37.1848 27.2752C40.5073 30.1927 50.1041 39.7012 50.1041 39.7012L52.8111 42.154C53.816 42.9801 55.1176 43.1166 56.408 42.9211C56.9049 42.8474 57.4797 42.7293 58.1138 42.5007C65.6451 39.7639 69.6203 31.9852 69.6203 31.9852C69.6203 31.9852 71.86 27.7141 71.9898 22.7459C72.2939 11.0133 65.7156 5.31485 61.6291 3.15718L61.6217 3.15349Z" fill="#711616"/>
</svg>
