<svg width="428" height="256" viewBox="0 0 428 256" fill="none" xmlns="http://www.w3.org/2000/svg">
<path d="M291.234 167.081L315.768 133.155C317.068 131.684 317.068 129.466 315.768 127.973L303.82 116.599C302.343 114.93 299.764 114.798 298.155 116.313L272.783 145.913C271.307 147.297 271.13 149.58 272.387 151.183L285.172 166.862C286.693 168.794 289.602 168.882 291.234 167.037V167.081Z" fill="#F2F2F2"/>
<path d="M133.889 85.4182L107.349 110.341C105.872 111.724 105.696 114.008 106.953 115.611L122.383 135.242C123.904 137.174 126.813 137.262 128.445 135.418L153.618 106.916C154.918 105.444 154.918 103.227 153.618 101.733L139.554 85.6817C138.077 84.0128 135.498 83.8811 133.889 85.3962V85.4182Z" fill="#F2F2F2"/>
<path d="M366.307 18.7742C307.54 -12.3189 253.6 4.58908 253.6 4.58908C223.754 11.484 186.942 38.3832 176.361 46.7274C174.576 48.1327 174.4 50.7897 176.031 52.4146L196.465 72.7701C198.316 74.6146 201.204 74.922 203.408 73.5167C211.234 68.5321 229.507 57.0698 240.97 51.2289C257.26 42.9505 276.988 39.6348 285.85 38.4929C297.995 37.2633 315.718 37.1974 335.998 42.5553C364.654 50.109 383.831 66.6437 394.831 82.0366C396.197 83.9689 397.476 85.9671 398.622 87.9873C406.536 101.887 407.682 115.699 407.748 131.904C407.748 133.463 407.704 135.11 407.638 136.801C406.69 155.619 400.496 173.779 390.224 189.589C377.902 208.561 357.997 231.464 333.022 233.33C329.539 233.594 326.122 232.167 323.83 229.532C315.564 220.089 303.771 203.138 300.398 199.427C297.003 195.672 261.8 150.701 235.062 123.033C224.063 110.692 213.57 99.4497 206.913 93.6087C187.163 76.2396 130.115 19.6306 130.115 19.6306L114.023 5.02825C108.094 0.109549 100.357 -0.680955 92.6857 0.482843C89.7319 0.922012 86.3152 1.62468 82.5459 2.98611C37.7763 19.2793 14.124 65.5897 14.124 65.5897C14.124 65.5897 0.809975 91.0176 0.0605088 120.596C-1.74703 190.446 37.3575 224.371 61.649 237.217C120.416 268.31 174.355 251.402 174.355 251.402C204.202 244.507 241.014 217.608 251.595 209.264C253.38 207.859 253.556 205.202 251.925 203.577L231.491 183.221C229.64 181.377 226.752 181.069 224.548 182.475C216.722 187.459 198.449 198.921 186.986 204.762C170.696 213.041 150.968 216.357 142.106 217.498C129.961 218.728 112.238 218.794 91.9583 213.436C63.3022 205.882 44.1247 189.348 33.1252 173.955C31.7585 172.022 30.48 170.024 29.3338 168.004C21.4203 154.104 20.274 140.292 20.2079 124.087C20.2079 122.528 20.252 120.881 20.3181 119.19C21.266 100.372 27.4601 82.2123 37.7322 66.4022C50.0543 47.43 69.9592 24.5274 94.9341 22.6609C98.4169 22.3974 101.834 23.8247 104.126 26.4597C112.392 35.9018 124.185 52.8538 127.558 56.5648C130.953 60.3197 166.155 105.291 192.894 132.958C203.893 145.299 214.386 156.542 221.043 162.383C240.793 179.752 297.841 236.361 297.841 236.361L313.932 250.963C319.906 255.882 327.643 256.694 335.314 255.53C338.268 255.091 341.685 254.389 345.454 253.027C390.224 236.734 413.854 190.424 413.854 190.424C413.854 190.424 427.168 164.996 427.939 135.418C429.747 65.5677 390.643 31.6419 366.351 18.7962L366.307 18.7742Z" fill="#F2F2F2"/>
</svg>
