<svg width="1052" height="630" viewBox="0 0 1052 630" fill="none" xmlns="http://www.w3.org/2000/svg">
<path d="M329.093 210.209L263.859 271.543C260.229 274.947 259.795 280.567 262.884 284.512L300.81 332.823C304.549 337.578 311.7 337.794 315.71 333.255L377.584 263.113C380.781 259.492 380.781 254.035 377.584 250.36L343.017 210.858C339.387 206.751 333.048 206.427 329.093 210.155V210.209Z" fill="#F3F9F8"/>
<path d="M715.836 411.177L776.139 327.688C779.335 324.067 779.335 318.609 776.139 314.935L746.773 286.943C743.143 282.836 736.804 282.512 732.848 286.24L670.486 359.084C666.856 362.488 666.423 368.108 669.511 372.053L700.936 410.637C704.674 415.392 711.826 415.608 715.836 411.069V411.177Z" fill="#F3F9F8"/>
<path d="M900.362 46.2022C755.916 -30.3161 623.336 11.2934 623.336 11.2934C549.975 28.2615 459.493 94.4586 433.486 114.993C429.098 118.452 428.664 124.99 432.674 128.989L482.899 179.083C487.45 183.622 494.548 184.378 499.966 180.92C519.2 168.653 564.116 140.445 592.29 126.071C632.33 105.699 680.821 97.5387 702.602 94.7287C732.456 91.7026 776.017 91.5405 825.863 104.726C896.298 123.315 943.436 164.006 970.472 201.887C973.831 206.642 976.973 211.56 979.791 216.531C999.242 250.738 1002.06 284.728 1002.22 324.608C1002.22 328.445 1002.11 332.498 1001.95 336.659C999.621 382.97 984.396 427.659 959.148 466.567C928.861 513.256 879.936 569.618 818.549 574.212C809.988 574.86 801.59 571.348 795.956 564.863C775.638 541.626 746.651 499.909 738.361 490.776C730.018 481.536 643.491 370.865 577.77 302.777C550.734 272.407 524.944 244.739 508.581 230.365C460.035 187.621 319.815 48.3097 319.815 48.3097L280.263 12.3742C265.689 0.269594 246.671 -1.67579 227.816 1.18825C220.556 2.26902 212.158 3.99824 202.893 7.34863C92.852 47.4451 34.716 161.412 34.716 161.412C34.716 161.412 1.99087 223.989 0.148727 296.778C-4.29409 468.675 91.8225 552.164 151.53 583.776C295.976 660.295 428.556 618.685 428.556 618.685C501.917 601.717 592.399 535.52 618.405 514.985C622.794 511.527 623.227 504.988 619.218 500.99L568.992 450.896C564.441 446.357 557.344 445.6 551.926 449.059C532.691 461.325 487.776 489.533 459.602 503.908C419.562 524.28 371.07 532.44 349.29 535.25C319.436 538.276 275.875 538.438 226.028 525.253C155.593 506.664 108.456 465.973 81.4199 428.092C78.0606 423.336 74.9182 418.419 72.1008 413.447C52.6499 379.241 49.8325 345.251 49.6699 305.37C49.6699 301.534 49.7783 297.481 49.9408 293.32C52.2706 247.009 67.4954 202.319 92.7436 163.412C123.031 116.722 171.956 60.3603 233.343 55.767C241.903 55.1186 250.301 58.6311 255.936 65.1157C276.254 88.3522 305.241 130.07 313.53 139.202C321.874 148.443 408.401 259.114 474.122 327.202C501.158 357.572 526.948 385.239 543.311 399.613C591.857 442.358 732.076 581.669 732.076 581.669L771.628 617.604C786.311 629.709 805.329 631.708 824.184 628.844C831.444 627.764 839.842 626.034 849.107 622.684C959.148 582.588 1017.23 468.621 1017.23 468.621C1017.23 468.621 1049.95 406.044 1051.85 333.254C1056.29 161.358 960.177 77.8688 900.47 46.2563L900.362 46.2022Z" fill="#F3F9F8"/>
</svg>
